<?xml version="1.0" encoding="utf-8"?>
<!-- Generator: Adobe Illustrator 26.4.1, SVG Export Plug-In . SVG Version: 6.00 Build 0)  -->
<svg version="1.1" id="Capa_1" xmlns="http://www.w3.org/2000/svg" xmlns:xlink="http://www.w3.org/1999/xlink" x="0px" y="0px"
	 viewBox="0 0 2295.56 562.44" style="enable-background:new 0 0 2295.56 562.44;" xml:space="preserve">
<style type="text/css">
	.st0{fill:#534AB7;}
	.st1{fill:#FFFFFF;}
	.st2{fill:#1D1D1B;}
</style>
<g>
	<g>
		<g>
			<path class="st0" d="M1248.13,434.66v-83.59l172.15-198.02v-7.96h-167.18V86.38h235.84v83.59l-172.15,198.02v7.96h173.15v58.71
				H1248.13z"/>
			<path class="st0" d="M1660.1,441.63c-24.55,0-46.61-4.98-66.17-14.93c-19.58-9.95-35-24.38-46.27-43.29
				c-11.28-18.91-16.92-41.62-16.92-68.16v-7.96c0-26.53,5.64-49.26,16.92-68.16c11.27-18.91,26.7-33.34,46.27-43.29
				c19.57-9.95,41.62-14.93,66.17-14.93c24.54,0,46.6,4.98,66.17,14.93c19.57,9.95,34.99,24.38,46.27,43.29
				c11.27,18.91,16.92,41.63,16.92,68.16v7.96c0,26.54-5.64,49.26-16.92,68.16c-11.28,18.91-26.7,33.33-46.27,43.29
				C1706.7,436.65,1684.64,441.63,1660.1,441.63z M1660.1,385.9c19.23,0,35.15-6.22,47.76-18.66c12.6-12.44,18.91-30.26,18.91-53.49
				v-4.98c0-23.21-6.22-41.05-18.66-53.49c-12.44-12.44-28.45-18.66-48.01-18.66c-19.24,0-35.16,6.22-47.76,18.66
				c-12.61,12.44-18.91,30.27-18.91,53.49v4.98c0,23.22,6.3,41.05,18.91,53.49C1624.94,379.68,1640.86,385.9,1660.1,385.9z"/>
			<path class="st0" d="M1880.02,434.66V239.62h-62.69v-51.75h62.69V142.1c0-16.92,5.05-30.43,15.18-40.55
				c10.11-10.11,23.3-15.18,39.55-15.18h64.68v51.75h-42.79c-9.29,0-13.93,4.98-13.93,14.93v34.83h64.68v51.75h-64.68v195.04
				H1880.02z"/>
			<path class="st0" d="M2145.71,434.66c-16.26,0-29.44-5.05-39.55-15.17c-10.12-10.11-15.18-23.63-15.18-40.55V239.62h-61.7v-51.75
				h61.7v-76.62h62.69v76.62h67.67v51.75h-67.67v128.37c0,9.95,4.64,14.93,13.93,14.93h47.76v51.75H2145.71z"/>
		</g>
	</g>
	<g>
		<g>
			<path class="st1" d="M28.96,433.27L120.5,84.98h114.44l91.55,348.28h-67.67l-18.91-76.62H115.53l-18.91,76.62H28.96z
				 M130.95,295.94h93.54L182.2,126.28h-8.96L130.95,295.94z"/>
			<path class="st1" d="M358.33,310.87v-7.96c0-25.87,5.14-48.01,15.42-66.42c10.28-18.41,23.96-32.5,41.05-42.29
				c17.08-9.78,35.74-14.68,55.97-14.68c22.55,0,39.63,3.98,51.25,11.94c11.61,7.96,20.07,16.26,25.38,24.88h8.96v-29.85h61.7
				v290.57c0,16.92-4.98,30.43-14.93,40.55c-9.95,10.11-23.22,15.18-39.8,15.18H398.13v-54.73h143.29c9.28,0,13.93-4.98,13.93-14.93
				v-64.18h-8.96c-3.32,5.31-7.96,10.7-13.93,16.17c-5.97,5.47-13.93,10.04-23.88,13.68c-9.95,3.65-22.56,5.47-37.81,5.47
				c-20.24,0-38.89-4.89-55.97-14.68c-17.09-9.78-30.77-23.88-41.05-42.29C363.47,358.88,358.33,336.74,358.33,310.87z
				 M488.68,379.53c19.23,0,35.33-6.13,48.26-18.41c12.94-12.27,19.4-29.52,19.4-51.75v-4.98c0-22.55-6.39-39.88-19.16-51.99
				c-12.77-12.1-28.94-18.16-48.51-18.16c-19.24,0-35.33,6.06-48.26,18.16c-12.94,12.11-19.4,29.44-19.4,51.99v4.98
				c0,22.23,6.47,39.48,19.4,51.75C453.36,373.4,469.44,379.53,488.68,379.53z"/>
			<path class="st1" d="M800.14,440.23c-24.55,0-46.19-5.22-64.93-15.67c-18.74-10.45-33.33-25.2-43.78-44.28
				c-10.45-19.07-15.67-41.55-15.67-67.42v-5.97c0-25.87,5.14-48.34,15.42-67.42c10.28-19.07,24.71-33.83,43.29-44.28
				c18.57-10.45,40.13-15.67,64.68-15.67c24.21,0,45.28,5.4,63.19,16.17c17.91,10.78,31.84,25.71,41.79,44.78
				c9.95,19.08,14.93,41.22,14.93,66.42v21.39H739.44c0.66,16.92,6.97,30.68,18.91,41.3c11.94,10.62,26.53,15.92,43.78,15.92
				c17.58,0,30.51-3.81,38.81-11.44c8.29-7.63,14.59-16.08,18.91-25.38l51.25,26.87c-4.65,8.63-11.37,18-20.15,28.11
				c-8.79,10.12-20.48,18.74-35.08,25.87C841.27,436.66,822.7,440.23,800.14,440.23z M739.94,281.51h115.43
				c-1.33-14.26-7.05-25.7-17.17-34.33c-10.12-8.62-23.31-12.94-39.56-12.94c-16.92,0-30.35,4.31-40.3,12.94
				C748.4,255.81,742.26,267.26,739.94,281.51z"/>
			<path class="st1" d="M974.78,433.27V186.48h61.7v32.34h8.96c3.98-8.62,11.44-16.83,22.39-24.63
				c10.95-7.79,27.53-11.69,49.75-11.69c19.23,0,36.07,4.4,50.5,13.19c14.43,8.79,25.62,20.9,33.58,36.32
				c7.96,15.42,11.94,33.42,11.94,53.98v147.27h-62.69v-142.3c0-18.57-4.56-32.5-13.68-41.79c-9.13-9.28-22.14-13.93-39.06-13.93
				c-19.24,0-34.17,6.39-44.78,19.16c-10.62,12.77-15.92,30.6-15.92,53.49v125.38H974.78z"/>
		</g>
	</g>
</g>
</svg>
