<?xml version="1.0" encoding="utf-8"?>
<!-- Generator: Adobe Illustrator 26.4.1, SVG Export Plug-In . SVG Version: 6.00 Build 0)  -->
<svg version="1.1" id="Capa_1" xmlns="http://www.w3.org/2000/svg" xmlns:xlink="http://www.w3.org/1999/xlink" x="0px" y="0px"
	 viewBox="0 0 466.38 452.52" style="enable-background:new 0 0 466.38 452.52;" xml:space="preserve">
<style type="text/css">
	.st0{fill:#534AB7;}
	.st1{fill:#FFFFFF;}
	.st2{fill:#1D1D1B;}
</style>
<g>
	<g>
		
			<text transform="matrix(1 0 0 1 1596.5997 1320.6476)" class="st0" style="font-family:'SpaceGrotesk-Bold'; font-size:553.2352px;">Zoft</text>
	</g>
	<text transform="matrix(1 0 0 1 256.4601 1319.0929)" style="font-family:'SpaceGrotesk-Bold'; font-size:553.2352px;">Agen</text>
	<g>
		<g>
			<g>
				<polygon class="st0" points="170.49,963.86 -147.82,1319.09 170.49,1319.09 				"/>
			</g>
			<g>
				<polygon class="st0" points="-248.79,1269.17 69.51,913.94 -248.79,913.94 				"/>
			</g>
		</g>
	</g>
</g>
<rect x="-1136.36" y="-1029.81" class="st0" width="172.55" height="97.53"/>
<rect x="-907.64" y="-1029.81" width="172.55" height="97.53"/>
<rect x="-678.92" y="-1029.81" class="st1" width="172.55" height="97.53"/>
<rect x="-1839.7" y="-749.83" class="st2" width="1406.68" height="432.62"/>
<g>
	<g>
		
			<text transform="matrix(1 0 0 1 -974.7234 -444.5327)" class="st0" style="font-family:'SpaceGrotesk-Bold'; font-size:242.0925px;">Zoft</text>
	</g>
	<g>
		
			<text transform="matrix(1 0 0 1 -1561.1609 -445.2124)" class="st1" style="font-family:'SpaceGrotesk-Bold'; font-size:242.0925px;">Agen</text>
	</g>
	<g>
		<g>
			<g>
				<polygon class="st0" points="-1598.78,-600.66 -1738.07,-445.21 -1598.78,-445.21 				"/>
			</g>
			<g>
				<polygon class="st0" points="-1782.26,-467.06 -1642.97,-622.5 -1782.26,-622.5 				"/>
			</g>
		</g>
	</g>
</g>
<g>
	<g>
		<g>
			<g>
				<polygon class="st0" points="452.68,65.06 118.39,438.14 452.68,438.14 				"/>
			</g>
			<g>
				<polygon class="st0" points="12.34,385.71 346.63,12.63 12.34,12.63 				"/>
			</g>
		</g>
	</g>
</g>
</svg>
