<?xml version="1.0" encoding="utf-8"?>
<!-- Generator: Adobe Illustrator 26.4.1, SVG Export Plug-In . SVG Version: 6.00 Build 0)  -->
<svg version="1.1" id="Capa_1" xmlns="http://www.w3.org/2000/svg" xmlns:xlink="http://www.w3.org/1999/xlink" x="0px" y="0px"
	 viewBox="0 0 3047.24 562.44" style="enable-background:new 0 0 3047.24 562.44;" xml:space="preserve">
<style type="text/css">
	.st0{fill:#534AB7;}
	.st1{fill:#FFFFFF;}
	.st2{fill:#1D1D1B;}
</style>
<g>
	<g>
		<g>
			<path class="st0" d="M1925.73,432.68V338.6l193.76-222.88v-8.96h-188.16V40.68h265.44v94.08l-193.76,222.88v8.96h194.88v66.08
				H1925.73z"/>
			<path class="st0" d="M2389.41,440.52c-27.63,0-52.46-5.6-74.48-16.8c-22.03-11.2-39.39-27.44-52.08-48.72
				c-12.7-21.28-19.04-46.85-19.04-76.72v-8.96c0-29.86,6.34-55.44,19.04-76.72c12.69-21.28,30.05-37.52,52.08-48.72
				c22.02-11.2,46.85-16.8,74.48-16.8c27.62,0,52.45,5.6,74.48,16.8c22.02,11.2,39.38,27.44,52.08,48.72
				c12.69,21.28,19.04,46.86,19.04,76.72v8.96c0,29.87-6.35,55.44-19.04,76.72c-12.7,21.28-30.06,37.52-52.08,48.72
				C2441.85,434.92,2417.03,440.52,2389.41,440.52z M2389.41,377.8c21.65,0,39.57-7,53.76-21c14.18-14,21.28-34.06,21.28-60.2V291
				c0-26.13-7-46.2-21-60.2s-32.02-21-54.04-21c-21.66,0-39.58,7-53.76,21c-14.19,14-21.28,34.07-21.28,60.2v5.6
				c0,26.14,7.09,46.2,21.28,60.2C2349.83,370.8,2367.75,377.8,2389.41,377.8z"/>
			<path class="st0" d="M2636.93,432.68V213.16h-70.56v-58.24h70.56V103.4c0-19.04,5.69-34.25,17.08-45.64
				c11.38-11.38,26.22-17.08,44.52-17.08h72.8v58.24h-48.16c-10.46,0-15.68,5.6-15.68,16.8v39.2h72.8v58.24h-72.8v219.52H2636.93z"
				/>
			<path class="st0" d="M2935.97,432.68c-18.3,0-33.14-5.69-44.52-17.08c-11.39-11.38-17.08-26.6-17.08-45.64v-156.8h-69.44v-58.24
				h69.44V68.68h70.56v86.24h76.16v58.24h-76.16v144.48c0,11.2,5.22,16.8,15.68,16.8h53.76v58.24H2935.97z"/>
		</g>
	</g>
	<g>
		<g>
			<path class="st1" d="M553.52,431.11l103.04-392h128.8l103.04,392h-76.16l-21.28-86.24h-140l-21.28,86.24H553.52z M668.32,276.55
				H773.6L726,85.59h-10.08L668.32,276.55z"/>
			<path class="st1" d="M924.23,293.35v-8.96c0-29.12,5.78-54.04,17.36-74.76c11.57-20.72,26.97-36.58,46.2-47.6
				c19.22-11.01,40.22-16.52,63-16.52c25.38,0,44.61,4.48,57.68,13.44c13.06,8.96,22.58,18.3,28.56,28h10.08v-33.6h69.44v327.04
				c0,19.04-5.6,34.25-16.8,45.64c-11.2,11.38-26.14,17.08-44.8,17.08H969.03v-61.6h161.28c10.45,0,15.68-5.6,15.68-16.8v-72.24
				h-10.08c-3.74,5.98-8.96,12.04-15.68,18.2c-6.72,6.16-15.68,11.3-26.88,15.4c-11.2,4.11-25.39,6.16-42.56,6.16
				c-22.78,0-43.78-5.5-63-16.52c-19.23-11.01-34.63-26.88-46.2-47.6C930.01,347.39,924.23,322.47,924.23,293.35z M1070.95,370.63
				c21.65,0,39.76-6.9,54.32-20.72c14.56-13.81,21.84-33.22,21.84-58.24v-5.6c0-25.38-7.19-44.89-21.56-58.52
				c-14.38-13.62-32.58-20.44-54.6-20.44c-21.66,0-39.76,6.82-54.32,20.44c-14.56,13.63-21.84,33.14-21.84,58.52v5.6
				c0,25.02,7.28,44.43,21.84,58.24C1031.19,363.72,1049.29,370.63,1070.95,370.63z"/>
			<path class="st1" d="M1421.5,438.95c-27.63,0-51.99-5.88-73.08-17.64c-21.1-11.76-37.52-28.37-49.28-49.84
				c-11.76-21.46-17.64-46.76-17.64-75.88v-6.72c0-29.12,5.78-54.41,17.36-75.88c11.57-21.46,27.81-38.08,48.72-49.84
				c20.9-11.76,45.17-17.64,72.8-17.64c27.25,0,50.96,6.07,71.12,18.2c20.16,12.14,35.84,28.94,47.04,50.4
				c11.2,21.47,16.8,46.39,16.8,74.76v24.08h-202.16c0.74,19.04,7.84,34.54,21.28,46.48c13.44,11.95,29.86,17.92,49.28,17.92
				c19.78,0,34.34-4.29,43.68-12.88c9.33-8.58,16.42-18.1,21.28-28.56l57.68,30.24c-5.23,9.71-12.79,20.26-22.68,31.64
				c-9.9,11.39-23.06,21.1-39.48,29.12C1467.79,434.93,1446.89,438.95,1421.5,438.95z M1353.74,260.31h129.92
				c-1.5-16.05-7.94-28.93-19.32-38.64c-11.39-9.7-26.23-14.56-44.52-14.56c-19.04,0-34.16,4.86-45.36,14.56
				C1363.26,231.38,1356.35,244.26,1353.74,260.31z"/>
			<path class="st1" d="M1618.06,431.11V153.35h69.44v36.4h10.08c4.48-9.7,12.88-18.94,25.2-27.72c12.32-8.77,30.98-13.16,56-13.16
				c21.65,0,40.6,4.95,56.84,14.84c16.24,9.9,28.84,23.52,37.8,40.88c8.96,17.36,13.44,37.62,13.44,60.76v165.76h-70.56V270.95
				c0-20.9-5.14-36.58-15.4-47.04c-10.27-10.45-24.92-15.68-43.96-15.68c-21.66,0-38.46,7.19-50.4,21.56
				c-11.95,14.38-17.92,34.44-17.92,60.2v141.12H1618.06z"/>
		</g>
	</g>
	<g>
		<g>
			<g>
				<polygon class="st0" points="456.41,71.53 134.21,431.1 456.41,431.1 				"/>
			</g>
			<g>
				<polygon class="st0" points="32,380.57 354.19,21 32,21 				"/>
			</g>
		</g>
	</g>
</g>
</svg>
